<svg width="24" height="24" viewBox="0 0 24 24" fill="none" xmlns="http://www.w3.org/2000/svg">
<path d="M20 10V11C18.95 11 18.02 11.93 17.41 12.75C16.86 11.93 15.96 11 14.66 11C13.42 11 12.55 11.85 12 12.64C11.45 11.85 10.58 11 9.34 11C8.04 11 7.14 11.93 6.59 12.75C5.98 11.93 5.05 11 4 11V10C4 8 5 7 7 7H7.25V5C7.25 4.59 7.59 4.25 8 4.25C8.41 4.25 8.75 4.59 8.75 5V7H11.25V5C11.25 4.59 11.59 4.25 12 4.25C12.41 4.25 12.75 4.59 12.75 5V7H15.25V5C15.25 4.59 15.59 4.25 16 4.25C16.41 4.25 16.75 4.59 16.75 5V7H17C19 7 20 8 20 10ZM18 14.6C17.86 14.86 17.58 15.02 17.28 15C16.99 14.98 16.73 14.78 16.63 14.5C16.62 14.48 15.88 12.5 14.66 12.5C13.64 12.5 12.89 13.98 12.71 14.5C12.6 14.8 12.32 15 12 15C11.68 15 11.4 14.8 11.29 14.5C11.29 14.48 10.55 12.5 9.34 12.5C8.12 12.5 7.38 14.48 7.37 14.5C7.27 14.78 7.01 14.98 6.72 15C6.41 15.01 6.14 14.86 6 14.6C5.53 13.72 4.57 12.5 4 12.5V17.25H20V12.5C19.43 12.5 18.47 13.72 18 14.6ZM3 18.75V19C3 20.1 3.9 21 5 21H19C20.1 21 21 20.1 21 19V18.75H3Z" fill="#25314C"/>
</svg>
