<svg width="16" height="16" viewBox="0 0 16 16" fill="none" xmlns="http://www.w3.org/2000/svg">
<g clip-path="url(#clip0_6444_33021)">
<path d="M8.66699 0.666016L8.66766 2.70736C11.0798 3.00845 12.9916 4.92044 13.2924 7.33268H15.3337V8.66602L13.2923 8.66668C12.9913 11.0786 11.0796 12.9903 8.66766 13.2913L8.66699 15.3327H7.33366V13.2914C4.92141 12.9906 3.00943 11.0788 2.70833 8.66668L0.666992 8.66602V7.33268H2.70825C3.00907 4.92021 4.92119 3.0081 7.33366 2.70728V0.666016H8.66699ZM8.00033 3.99935C5.79119 3.99935 4.00033 5.79021 4.00033 7.99935C4.00033 10.2085 5.79119 11.9993 8.00033 11.9993C10.2095 11.9993 12.0003 10.2085 12.0003 7.99935C12.0003 5.79021 10.2095 3.99935 8.00033 3.99935ZM8.00033 6.66602C8.73673 6.66602 9.33366 7.26295 9.33366 7.99935C9.33366 8.73575 8.73673 9.33268 8.00033 9.33268C7.26393 9.33268 6.66699 8.73575 6.66699 7.99935C6.66699 7.26295 7.26393 6.66602 8.00033 6.66602Z" fill="#050505"/>
</g>
<defs>
<clipPath id="clip0_6444_33021">
<rect width="16" height="16" fill="white"/>
</clipPath>
</defs>
</svg>
