<svg width="24" height="24" viewBox="0 0 24 24" fill="none" xmlns="http://www.w3.org/2000/svg">
<path d="M21 17.75V18C21 19.1 20.1 20 19 20H5C3.9 20 3 19.1 3 18V17.75H21ZM20 15C20 15.43 19.97 15.84 19.9 16.25H4.10001C4.03001 15.84 4 15.43 4 15C4 10.91 7.067 7.546 11.026 7.065C11.001 7.068 10.974 7.06601 10.95 7.07001C10.67 6.80001 10.5 6.42 10.5 6C10.5 5.17 11.17 4.5 12 4.5C12.83 4.5 13.5 5.17 13.5 6C13.5 6.42 13.33 6.80001 13.05 7.07001C13.025 7.06601 12.998 7.068 12.974 7.065C16.933 7.546 20 10.91 20 15ZM16.71 11.6C15.96 10.4 14.62 9.52001 13.13 9.26001C12.73 9.19001 12.33 9.46 12.26 9.87C12.19 10.28 12.46 10.67 12.87 10.74C13.93 10.93 14.91 11.56 15.43 12.4C15.57 12.62 15.82 12.75 16.07 12.75C16.21 12.75 16.34 12.71 16.47 12.64C16.82 12.42 16.93 11.96 16.71 11.6Z" fill="#25314C"/>
</svg>
