<svg width="24" height="24" viewBox="0 0 24 24" fill="none" xmlns="http://www.w3.org/2000/svg">
<path d="M17.7147 3.51027C17.6118 4.1285 16.8658 4.40513 16.3394 4.03411C15.0213 3.10468 13.3723 2.5 11.4926 2.5C9.99493 2.5 8.57575 2.83925 7.3132 3.44905C6.91609 3.64111 6.53362 3.86029 6.16967 4.10373C4.90467 4.95187 3.85726 6.09673 3.12986 7.45328C2.90644 7.86683 2.71373 8.30374 2.55371 8.75467C2.19515 9.76028 2 10.8528 2 12.0005C2 17.3486 6.27016 21.5 11.4926 21.5C13.3723 21.5 15.0218 20.8953 16.3399 19.9664C16.8663 19.5958 17.6118 19.8715 17.7147 20.4893C17.7815 20.8897 18.1421 21.1846 18.5655 21.1846H21.1384C21.6146 21.1846 22 20.8149 22 20.3594V3.63973C22 3.18365 21.6141 2.81449 21.1384 2.81449H18.5655C18.1426 2.81496 17.7815 3.10981 17.7147 3.51027ZM16.5752 11.2105C15.8515 12.3667 15.1319 13.525 14.4123 14.6833C13.9172 15.4801 13.4222 16.2769 12.9258 17.073C12.5112 17.7385 11.5901 17.7385 11.1749 17.073C10.0822 15.3192 8.99267 13.5641 7.90434 11.8079C7.85171 11.7229 7.79742 11.6385 7.7431 11.554C7.57709 11.2958 7.4107 11.0369 7.28984 10.7601C6.91966 9.91188 7.27195 8.93878 8.08573 8.46269C8.4735 8.23505 8.8621 8.00874 9.25068 7.78244C9.68499 7.52951 10.1193 7.2766 10.5524 7.02186C10.6677 6.95376 10.7344 6.95435 10.8084 7.07741C10.9192 7.26189 11.0334 7.4445 11.1477 7.62712C11.2835 7.84425 11.4194 8.06138 11.5494 8.28169C11.5975 8.36293 11.6105 8.4812 11.595 8.57618C11.5063 9.13366 11.41 9.68992 11.3137 10.246C11.2929 10.3662 11.2721 10.4864 11.2514 10.6066C11.2057 10.8712 11.1593 11.1359 11.1129 11.4005C11.0665 11.6651 11.02 11.9298 10.9744 12.1944C10.9504 12.333 10.9261 12.4716 10.9018 12.6102C10.8161 13.0987 10.7304 13.5874 10.6579 14.0779C10.6387 14.2057 10.6677 14.364 10.7344 14.4751C11.0799 15.0569 11.4414 15.6298 11.8073 16.1997C11.8517 16.269 11.9486 16.3245 12.0331 16.3478C12.1398 16.3777 12.2281 16.318 12.2873 16.2218C12.398 16.043 12.5096 15.8647 12.6211 15.6864C12.8766 15.2778 13.1321 14.8692 13.3787 14.4554C13.4404 14.3526 13.462 14.2039 13.4441 14.0844C13.3901 13.7156 13.3241 13.3486 13.2582 12.9817C13.2344 12.8495 13.2106 12.7173 13.1874 12.5851C13.1577 12.4148 13.1279 12.2444 13.0982 12.0741C13.0133 11.5878 12.9285 11.1013 12.8426 10.6156C12.7852 10.2909 12.7267 9.96643 12.6681 9.64192C12.6322 9.44283 12.5963 9.24372 12.5606 9.04451C12.5528 9.00038 12.544 8.95625 12.5352 8.9121C12.5129 8.79965 12.4906 8.68703 12.4835 8.5738C12.4773 8.4812 12.4964 8.37308 12.5433 8.29363C12.6707 8.07968 12.8027 7.86833 12.9347 7.65704C13.0551 7.46424 13.1755 7.27148 13.2923 7.07681C13.3664 6.95316 13.4336 6.95376 13.5484 7.02186C14.0336 7.30727 14.5201 7.59059 15.0066 7.87392C15.3429 8.06974 15.6792 8.26557 16.015 8.46209C16.6048 8.80736 16.9528 9.4101 16.9522 10.1413C16.959 10.4979 16.7955 10.8581 16.5752 11.2105Z" fill="#050505"/>
</svg>
