<svg width="24" height="24" viewBox="0 0 24 24" fill="none" xmlns="http://www.w3.org/2000/svg">
<path d="M21 19.75H3C2.586 19.75 2.25 19.414 2.25 19C2.25 18.586 2.586 18.25 3 18.25H21C21.414 18.25 21.75 18.586 21.75 19C21.75 19.414 21.414 19.75 21 19.75ZM21.75 8.5C21.75 10.75 19.98 12.61 17.75 12.74V13C17.75 15.418 16.418 16.75 14 16.75H8C5.582 16.75 4.25 15.418 4.25 13V5.5C4.25 4.811 4.811 4.25 5.5 4.25L17.75 4.26001C19.98 4.39001 21.75 6.25 21.75 8.5ZM20.25 8.5C20.25 7.06 19.15 5.89001 17.75 5.76001V11.24C19.15 11.11 20.25 9.94 20.25 8.5Z" fill="#25314C"/>
</svg>
