<svg width="24" height="24" viewBox="0 0 24 24" fill="none" xmlns="http://www.w3.org/2000/svg">
<path d="M10.006 10.814L7.09201 13.728C6.97501 13.845 6.785 13.845 6.668 13.728L6.297 13.357C4.621 11.681 3.25 8.37 3.25 6V4C3.25 3.7 3.42999 3.42 3.70999 3.31C3.98999 3.19 4.32 3.25997 4.53 3.46997L9.72 8.65997C9.729 9.29597 9.85402 9.91499 10.071 10.503C10.112 10.612 10.088 10.732 10.006 10.814ZM21.53 20.47L15.33 14.27C14.704 14.261 14.086 14.145 13.507 13.929C13.398 13.889 13.278 13.912 13.196 13.994L10.273 16.908C10.156 17.025 10.155 17.215 10.273 17.333L11.121 18.18C11.351 18.41 11.671 18.54 12.001 18.54C12.331 18.54 12.651 18.41 12.881 18.18L15.001 16.06L20.471 21.53C20.621 21.68 20.811 21.75 21.001 21.75C21.191 21.75 21.381 21.68 21.531 21.53C21.82 21.24 21.82 20.76 21.53 20.47ZM21.53 7.46997C21.38 7.31997 21.19 7.25 21 7.25C20.81 7.25 20.62 7.31997 20.47 7.46997L17.47 10.47L16.78 9.78003L19.78 6.78003C19.99 6.57003 20.05 6.26 19.95 6C19.92 5.89 19.86 5.79997 19.78 5.71997C19.49 5.42997 19.01 5.42997 18.72 5.71997L15.72 8.71997L15.28 8.28003L18.28 5.28003C18.57 4.99003 18.57 4.50997 18.28 4.21997C18.2 4.13997 18.11 4.07999 18 4.04999C17.74 3.94999 17.43 4.00997 17.22 4.21997L14.22 7.21997L13.53 6.53003L16.53 3.53003C16.82 3.24003 16.82 2.75997 16.53 2.46997C16.38 2.31997 16.19 2.25 16 2.25C15.81 2.25 15.62 2.31997 15.47 2.46997L12.47 5.46997C11.66 6.27997 11.21 7.36 11.21 8.5C11.21 9.37 11.48 10.18 11.95 10.89C11.96 10.91 11.98 10.93 11.99 10.95L7.94 15L2.47 20.47C2.18 20.76 2.18 21.24 2.47 21.53C2.62 21.68 2.81 21.75 3 21.75C3.19 21.75 3.38 21.68 3.53 21.53L9 16.06L13.05 12.01C13.07 12.02 13.09 12.04 13.11 12.05C13.84 12.53 14.66 12.78 15.5 12.78C16.6 12.78 17.69 12.37 18.53 11.53L21.53 8.53003C21.82 8.24003 21.82 7.75997 21.53 7.46997Z" fill="#25314C"/>
</svg>
