<svg width="24" height="24" viewBox="0 0 24 24" fill="none" xmlns="http://www.w3.org/2000/svg">
<path d="M7.20802 19.856C6.41702 20.647 3.663 21.35 3.119 21.483C3.079 21.493 3.04001 21.497 3.00001 21.497C2.86701 21.497 2.73802 21.444 2.64302 21.347C2.51902 21.221 2.47201 21.039 2.51701 20.868C2.66801 20.301 3.45901 17.43 4.24601 16.643C4.68901 16.2 5.26402 15.972 5.84202 15.978C6.40102 15.991 6.93801 16.228 7.35301 16.643C8.19901 17.49 8.13402 18.931 7.20802 19.856ZM17.208 14.729L16.95 16.3C16.65 18.19 15.35 19.8 13.57 20.51L11.19 21.46C11.13 21.49 11.06 21.5 11 21.5C10.89 21.5 10.77 21.46 10.68 21.38C10.54 21.27 10.47 21.08 10.51 20.9L11.173 17.564C11.076 17.583 10.984 17.609 10.885 17.626C10.763 17.647 10.64 17.657 10.518 17.657C9.93401 17.657 9.36 17.42 8.93 16.991L7.00801 15.068C6.48801 14.548 6.251 13.818 6.373 13.113C6.39 13.016 6.416 12.925 6.434 12.829L3.119 13.488C3.089 13.498 3.04902 13.498 3.01902 13.498C2.86902 13.498 2.72902 13.438 2.63902 13.318C2.51902 13.178 2.489 12.978 2.559 12.808L3.51902 10.418C4.21902 8.648 5.829 7.348 7.719 7.048L9.27 6.789C11.831 3.852 15.853 2.24701 20.998 2.24701C21.412 2.24701 21.748 2.58301 21.748 2.99701C21.75 8.14601 20.146 12.168 17.208 14.729ZM18.969 9.69501C18.815 7.18501 16.814 5.185 14.304 5.03C11.405 6.279 8.66102 8.70099 7.85102 13.37C7.81302 13.591 7.89601 13.835 8.06901 14.007L9.99101 15.93C10.163 16.102 10.408 16.184 10.629 16.147C15.299 15.338 17.721 12.595 18.969 9.69501ZM13.5 8.25C12.257 8.25 11.25 9.257 11.25 10.5C11.25 11.743 12.257 12.75 13.5 12.75C14.743 12.75 15.75 11.743 15.75 10.5C15.75 9.257 14.743 8.25 13.5 8.25Z" fill="#25314C"/>
</svg>
