<svg width="24" height="24" viewBox="0 0 24 24" fill="none" xmlns="http://www.w3.org/2000/svg">
<path d="M21.75 3C21.75 2.586 21.414 2.25 21 2.25C15.855 2.25 11.832 3.85399 9.272 6.79199L7.721 7.05099C5.831 7.35099 4.22099 8.65099 3.52099 10.421L2.561 12.811C2.491 12.981 2.52098 13.181 2.64098 13.321C2.73098 13.441 2.87099 13.501 3.02099 13.501C3.05099 13.501 3.091 13.501 3.121 13.491L6.436 12.832C6.418 12.928 6.39199 13.018 6.37499 13.116C6.25199 13.82 6.49 14.551 7.01 15.071L8.932 16.994C9.362 17.423 9.93598 17.66 10.52 17.66C10.642 17.66 10.765 17.65 10.887 17.629C10.986 17.612 11.077 17.585 11.175 17.567L10.512 20.903C10.472 21.083 10.542 21.273 10.682 21.383C10.772 21.463 10.892 21.503 11.002 21.503C11.062 21.503 11.132 21.493 11.192 21.463L13.572 20.513C15.352 19.803 16.652 18.193 16.952 16.303L17.21 14.732C20.146 12.168 21.75 8.146 21.75 3ZM10.629 16.148C10.408 16.185 10.163 16.103 9.99099 15.931L8.06899 14.008C7.89599 13.836 7.81301 13.591 7.85101 13.371C8.66101 8.702 11.405 6.27901 14.304 5.03101C16.814 5.18601 18.814 7.18501 18.969 9.69601C17.721 12.595 15.299 15.338 10.629 16.148ZM15.75 10.5C15.75 11.743 14.743 12.75 13.5 12.75C12.257 12.75 11.25 11.743 11.25 10.5C11.25 9.257 12.257 8.25 13.5 8.25C14.743 8.25 15.75 9.257 15.75 10.5Z" fill="#25314C"/>
</svg>
