<svg width="24" height="24" viewBox="0 0 24 24" fill="none" xmlns="http://www.w3.org/2000/svg">
<path d="M17.7147 3.51027C17.6118 4.1285 16.8658 4.40513 16.3394 4.03411C15.0213 3.10468 13.3723 2.5 11.4926 2.5C9.99493 2.5 8.57575 2.83925 7.3132 3.44905C6.91609 3.64111 6.53362 3.86029 6.16967 4.10373C4.90467 4.95187 3.85726 6.09673 3.12986 7.45328C2.90644 7.86683 2.71373 8.30374 2.55371 8.75467C2.19515 9.76028 2 10.8528 2 12.0005C2 17.3486 6.27016 21.5 11.4926 21.5C13.3723 21.5 15.0218 20.8953 16.3399 19.9664C16.8663 19.5958 17.6118 19.8715 17.7147 20.4893C17.7815 20.8897 18.1421 21.1846 18.5655 21.1846H21.1384C21.6146 21.1846 22 20.8149 22 20.3594V3.63973C22 3.18365 21.6141 2.81449 21.1384 2.81449H18.5655C18.1426 2.81496 17.7815 3.10981 17.7147 3.51027ZM17.4286 10.8174C17.4286 14.2397 13.8082 16.2789 12.2573 17.1524C12.1636 17.2052 12.0774 17.2537 12 17.2981C11.9226 17.2537 11.8364 17.2052 11.7427 17.1524C10.1918 16.2789 6.57143 14.2397 6.57143 10.8174C6.57143 9.00286 7.92857 7.70673 9.55714 7.70673C10.5668 7.70673 11.4571 8.22518 12 8.74363C12.5429 8.22518 13.4331 7.70673 14.4429 7.70673C16.0918 7.70673 17.4286 9.00286 17.4286 10.8174Z" fill="#050505"/>
</svg>
