<svg width="24" height="24" viewBox="0 0 24 24" fill="none" xmlns="http://www.w3.org/2000/svg">
<path d="M9.75 3C9.75 2.586 10.086 2.25 10.5 2.25H13.5C13.914 2.25 14.25 2.586 14.25 3C14.25 3.414 13.914 3.75 13.5 3.75H10.5C10.086 3.75 9.75 3.414 9.75 3ZM21 9.75H19.959L20.08 10.7C20.47 10.85 20.74 11.07 20.92 11.28C21.37 11.79 21.57 12.52 21.47 13.31L21.08 16.43C20.92 17.77 20.27 18.71 19.25 19.17V20.25C19.25 20.66 18.91 21 18.5 21C18.09 21 17.75 20.66 17.75 20.25V19.5H6.25V20.25C6.25 20.66 5.91 21 5.5 21C5.09 21 4.75 20.66 4.75 20.25V19.18C3.73 18.72 3.08 17.77 2.91 16.43L2.52 13.31C2.42 12.52 2.62001 11.79 3.07001 11.28C3.25001 11.07 3.52 10.84 3.92 10.69H3.92101L4.041 9.75H3C2.586 9.75 2.25 9.414 2.25 9C2.25 8.586 2.586 8.25 3 8.25H4.233L4.34 7.41C4.58 5.92 4.85999 4.25 8.03999 4.25H15.96C19.14 4.25 19.42 5.92001 19.66 7.39001L19.769 8.25H21C21.414 8.25 21.75 8.586 21.75 9C21.75 9.414 21.414 9.75 21 9.75ZM9.5 15C9.5 14.59 9.16 14.25 8.75 14.25H7.25C6.84 14.25 6.5 14.59 6.5 15C6.5 15.41 6.84 15.75 7.25 15.75H8.75C9.16 15.75 9.5 15.41 9.5 15ZM17.5 15C17.5 14.59 17.16 14.25 16.75 14.25H15.25C14.84 14.25 14.5 14.59 14.5 15C14.5 15.41 14.84 15.75 15.25 15.75H16.75C17.16 15.75 17.5 15.41 17.5 15ZM18.56 10.58L18.18 7.60999C17.95 6.21999 17.87 5.75 15.96 5.75H8.03999C6.12999 5.75 6.05001 6.22 5.82001 7.63L5.44 10.58C6.31 10.77 8.85 11.25 12 11.25C15.15 11.25 17.7 10.77 18.56 10.58Z" fill="#25314C"/>
</svg>
