<svg width="16" height="16" viewBox="0 0 16 16" fill="none" xmlns="http://www.w3.org/2000/svg">
<path d="M11.333 4.00065H14.6663V5.33398H13.333V14.0007C13.333 14.3689 13.0345 14.6673 12.6663 14.6673H3.33301C2.96482 14.6673 2.66634 14.3689 2.66634 14.0007V5.33398H1.33301V4.00065H4.66634V2.00065C4.66634 1.63246 4.96482 1.33398 5.33301 1.33398H10.6663C11.0345 1.33398 11.333 1.63246 11.333 2.00065V4.00065ZM11.9997 5.33398H3.99967V13.334H11.9997V5.33398ZM5.99967 7.33398H7.33301V11.334H5.99967V7.33398ZM8.66634 7.33398H9.99967V11.334H8.66634V7.33398ZM5.99967 2.66732V4.00065H9.99967V2.66732H5.99967Z" fill="#050505"/>
</svg>
