<svg width="24" height="24" viewBox="0 0 24 24" fill="none" xmlns="http://www.w3.org/2000/svg">
  <path
    d="M20.75 6.5H2.75C2.336 6.5 2 6.164 2 5.75C2 5.336 2.336 5 2.75 5H20.75C21.164 5 21.5 5.336 21.5 5.75C21.5 6.164 21.164 6.5 20.75 6.5ZM21.5 11.75C21.5 11.336 21.164 11 20.75 11H6.75C6.336 11 6 11.336 6 11.75C6 12.164 6.336 12.5 6.75 12.5H20.75C21.164 12.5 21.5 12.164 21.5 11.75ZM21.5 17.75C21.5 17.336 21.164 17 20.75 17H10.75C10.336 17 10 17.336 10 17.75C10 18.164 10.336 18.5 10.75 18.5H20.75C21.164 18.5 21.5 18.164 21.5 17.75Z"
    fill="#111927" />
</svg>