<svg width="24" height="24" viewBox="0 0 24 24" fill="none" xmlns="http://www.w3.org/2000/svg">
<path d="M5.02002 13.5C4.19102 13.5 3.51501 12.829 3.51501 12C3.51501 11.171 4.18201 10.5 5.01001 10.5H5.02002C5.84902 10.5 6.52002 11.171 6.52002 12C6.52002 12.829 5.84902 13.5 5.02002 13.5ZM12.02 13.5C11.191 13.5 10.515 12.829 10.515 12C10.515 11.171 11.182 10.5 12.01 10.5H12.02C12.849 10.5 13.52 11.171 13.52 12C13.52 12.829 12.849 13.5 12.02 13.5ZM19.02 13.5C18.191 13.5 17.515 12.829 17.515 12C17.515 11.171 18.182 10.5 19.01 10.5H19.02C19.849 10.5 20.52 11.171 20.52 12C20.52 12.829 19.849 13.5 19.02 13.5Z" fill="#25314C"/>
</svg>
