<svg width="24" height="24" viewBox="0 0 24 24" fill="none" xmlns="http://www.w3.org/2000/svg">
<path d="M12.02 6.5C11.191 6.5 10.515 5.829 10.515 5C10.515 4.171 11.182 3.5 12.01 3.5H12.02C12.849 3.5 13.52 4.171 13.52 5C13.52 5.829 12.849 6.5 12.02 6.5ZM13.52 12C13.52 11.171 12.849 10.5 12.02 10.5H12.01C11.182 10.5 10.515 11.171 10.515 12C10.515 12.829 11.191 13.5 12.02 13.5C12.849 13.5 13.52 12.829 13.52 12ZM13.52 19C13.52 18.171 12.849 17.5 12.02 17.5H12.01C11.182 17.5 10.515 18.171 10.515 19C10.515 19.829 11.191 20.5 12.02 20.5C12.849 20.5 13.52 19.829 13.52 19Z" fill="#25314C"/>
</svg>
