<svg width="24" height="24" viewBox="0 0 24 24" fill="none" xmlns="http://www.w3.org/2000/svg">
<path d="M20.75 13.5C20.75 11.156 18.843 9.25 16.5 9.25H15.5H15H4.5C3.811 9.25 3.25 9.811 3.25 10.5V18C3.25 20.418 4.582 21.75 7 21.75H13C15.418 21.75 16.75 20.418 16.75 18V17.725C18.975 17.592 20.75 15.758 20.75 13.5ZM15.25 18C15.25 19.577 14.577 20.25 13 20.25H7C5.423 20.25 4.75 19.577 4.75 18V10.75H15H15.25V18ZM16.75 16.225V10.776C18.148 10.904 19.25 12.07 19.25 13.501C19.25 14.932 18.148 16.096 16.75 16.225ZM11.817 5.37701C11.062 4.61801 11.062 3.38201 11.817 2.62201L11.967 2.47101C12.259 2.17801 12.734 2.17502 13.028 2.46802C13.321 2.76002 13.323 3.23499 13.031 3.52899L12.881 3.67999C12.705 3.85699 12.705 4.14301 12.881 4.32001L13.182 4.62298C13.937 5.38198 13.937 6.61799 13.182 7.37799L13.032 7.52899C12.885 7.67599 12.693 7.75 12.5 7.75C12.309 7.75 12.118 7.67698 11.971 7.53198C11.678 7.23998 11.676 6.76501 11.968 6.47101L12.118 6.32001C12.294 6.14301 12.294 5.85699 12.118 5.67999L11.817 5.37701ZM6.817 5.37701C6.062 4.61801 6.062 3.38201 6.817 2.62201L6.967 2.47101C7.259 2.17801 7.734 2.17502 8.028 2.46802C8.321 2.76002 8.32301 3.23499 8.03101 3.52899L7.881 3.67999C7.705 3.85699 7.705 4.14301 7.881 4.32001L8.18201 4.62298C8.93701 5.38198 8.93701 6.61799 8.18201 7.37799L8.032 7.52899C7.885 7.67599 7.693 7.75 7.5 7.75C7.309 7.75 7.11799 7.67698 6.97099 7.53198C6.67799 7.23998 6.676 6.76501 6.968 6.47101L7.118 6.32001C7.294 6.14301 7.294 5.85699 7.118 5.67999L6.817 5.37701Z" fill="#25314C"/>
</svg>
