<svg width="24" height="24" viewBox="0 0 24 24" fill="none" xmlns="http://www.w3.org/2000/svg">
<path d="M8 16.75H14C16.418 16.75 17.75 15.418 17.75 13V12.725C19.975 12.593 21.75 10.758 21.75 8.5C21.75 6.156 19.843 4.25 17.5 4.25H16.5H16H5.5C4.811 4.25 4.25 4.811 4.25 5.5V13C4.25 15.418 5.582 16.75 8 16.75ZM20.25 8.5C20.25 9.931 19.148 11.096 17.75 11.225V5.776C19.148 5.904 20.25 7.069 20.25 8.5ZM5.75 5.75H16H16.25V13C16.25 14.577 15.577 15.25 14 15.25H8C6.423 15.25 5.75 14.577 5.75 13V5.75ZM21.75 19C21.75 19.414 21.414 19.75 21 19.75H3C2.586 19.75 2.25 19.414 2.25 19C2.25 18.586 2.586 18.25 3 18.25H21C21.414 18.25 21.75 18.586 21.75 19Z" fill="#25314C"/>
</svg>
