<svg width="24" height="24" viewBox="0 0 24 24" fill="none" xmlns="http://www.w3.org/2000/svg">
<path d="M21.53 20.47C21.823 20.763 21.823 21.238 21.53 21.531C21.384 21.677 21.192 21.751 21 21.751C20.808 21.751 20.616 21.678 20.47 21.531L15 16.061L12.88 18.1811C12.647 18.4151 12.334 18.5431 12 18.5431C11.666 18.5431 11.353 18.414 11.119 18.18L9.96999 17.0301C9.67699 16.7371 9.67699 16.262 9.96999 15.969C10.263 15.676 10.738 15.676 11.031 15.969L12.001 16.939L14.471 14.469C14.763 14.177 15.234 14.177 15.527 14.466L15.528 14.4651L15.531 14.468L15.537 14.474L21.53 20.47ZM6.96999 14.0301C7.11599 14.1761 7.30799 14.25 7.49999 14.25C7.69199 14.25 7.88399 14.1771 8.02999 14.0301C8.32299 13.7371 8.32299 13.262 8.02999 12.969L7.35998 12.299C5.94498 10.884 4.74999 7.99905 4.74999 5.99905V5.81002L8.479 9.54C8.625 9.686 8.817 9.76003 9.009 9.76003C9.201 9.76003 9.39299 9.687 9.53899 9.54C9.83199 9.247 9.83199 8.77203 9.53899 8.47903L4.52898 3.46902C4.45998 3.40002 4.377 3.34503 4.285 3.30703C4.102 3.23103 3.895 3.23103 3.712 3.30703C3.529 3.38303 3.38199 3.52904 3.30599 3.71304C3.26799 3.80504 3.24798 3.90202 3.24798 4.00002V6.00002C3.24798 8.41702 4.588 11.65 6.298 13.36L6.96999 14.0301ZM15.5 12.783C16.597 12.783 17.695 12.3651 18.53 11.5301L21.53 8.53005C21.823 8.23705 21.823 7.76202 21.53 7.46902C21.237 7.17602 20.762 7.17602 20.469 7.46902L17.469 10.469C16.383 11.555 14.615 11.555 13.53 10.469C13.004 9.94302 12.714 9.24305 12.714 8.49905C12.714 7.75505 13.004 7.05502 13.53 6.52902L16.53 3.52902C16.823 3.23602 16.823 2.76104 16.53 2.46804C16.237 2.17504 15.762 2.17504 15.469 2.46804L12.469 5.46804C11.659 6.27704 11.214 7.35301 11.214 8.49801C11.214 9.38801 11.49 10.232 11.991 10.946L2.46999 20.467C2.17699 20.76 2.17699 21.235 2.46999 21.528C2.61599 21.674 2.80799 21.748 2.99999 21.748C3.19199 21.748 3.38399 21.675 3.52999 21.528L13.053 12.005C13.787 12.519 14.641 12.783 15.5 12.783ZM14.351 8.16103C14.497 8.30703 14.689 8.38003 14.88 8.38003C15.072 8.38003 15.265 8.307 15.411 8.16L18.281 5.28005C18.573 4.98705 18.573 4.51202 18.279 4.21902C17.986 3.92702 17.51 3.92703 17.218 4.22103L14.348 7.10104C14.056 7.39404 14.057 7.86903 14.351 8.16103ZM15.851 9.66103C15.997 9.80703 16.189 9.88003 16.38 9.88003C16.572 9.88003 16.765 9.807 16.911 9.66L19.781 6.78005C20.073 6.48705 20.073 6.01202 19.779 5.71902C19.486 5.42702 19.01 5.42703 18.718 5.72103L15.848 8.60104C15.556 8.89404 15.557 9.36903 15.851 9.66103Z" fill="#25314C"/>
</svg>
