<svg width="24" height="24" viewBox="0 0 24 24" fill="none" xmlns="http://www.w3.org/2000/svg">
<path d="M13.5 7.5C11.846 7.5 10.5 8.846 10.5 10.5C10.5 12.154 11.846 13.5 13.5 13.5C15.154 13.5 16.5 12.154 16.5 10.5C16.5 8.846 15.154 7.5 13.5 7.5ZM13.5 12C12.673 12 12 11.327 12 10.5C12 9.673 12.673 9 13.5 9C14.327 9 15 9.673 15 10.5C15 11.327 14.327 12 13.5 12ZM21.75 3C21.75 2.586 21.414 2.25 21 2.25C16.038 2.25 12.122 3.743 9.55201 6.483L7.66001 6.79999C5.68201 7.11999 3.99702 8.47499 3.26402 10.331L2.30399 12.721C2.20099 12.977 2.24701 13.268 2.42301 13.48C2.56701 13.654 2.77901 13.751 3.00001 13.751C3.04901 13.751 3.09801 13.746 3.14701 13.737L6.37901 13.092C6.37801 13.1 6.375 13.108 6.374 13.116C6.251 13.82 6.48901 14.551 7.00901 15.071L8.93101 16.994C9.36101 17.423 9.93502 17.66 10.519 17.66C10.641 17.66 10.764 17.65 10.886 17.629C10.894 17.628 10.902 17.625 10.91 17.624L10.265 20.856C10.211 21.126 10.309 21.404 10.521 21.58C10.658 21.694 10.828 21.753 11 21.753C11.094 21.753 11.189 21.735 11.279 21.699L13.666 20.741C15.526 20.006 16.88 18.321 17.2 16.347L17.517 14.451C20.257 11.878 21.75 7.962 21.75 3ZM19.712 7.474C19.083 6.057 17.943 4.91699 16.526 4.28799C17.894 3.94699 19.197 3.80601 20.235 3.76501C20.194 4.80401 20.053 6.106 19.712 7.474ZM4.21201 11.993L4.65702 10.886C5.19902 9.51499 6.44102 8.517 7.90302 8.28L8.20701 8.229C7.59101 9.205 7.10699 10.293 6.76099 11.484L4.21201 11.993ZM10.629 16.148C10.408 16.185 10.163 16.103 9.99101 15.931L8.06901 14.008C7.89601 13.836 7.81302 13.591 7.85102 13.371C8.61502 8.968 11.099 6.566 13.811 5.258C13.874 5.255 13.935 5.25 14 5.25C16.619 5.25 18.75 7.381 18.75 10C18.75 10.059 18.748 10.12 18.745 10.182C17.438 12.896 15.036 15.384 10.629 16.148ZM15.72 16.1C15.484 17.558 14.486 18.8 13.111 19.344L12.007 19.787L12.515 17.239C13.707 16.892 14.795 16.408 15.771 15.792L15.72 16.1Z" fill="#25314C"/>
</svg>
