<svg width="24" height="24" viewBox="0 0 24 24" fill="none" xmlns="http://www.w3.org/2000/svg">
<path d="M17.7147 3.51027C17.7815 3.10981 18.1426 2.81496 18.5655 2.81449H21.1384C21.6141 2.81449 22 3.18365 22 3.63973V20.3594C22 20.8149 21.6146 21.1846 21.1384 21.1846H18.5655C18.1421 21.1846 17.7815 20.8897 17.7147 20.4893C17.6118 19.8715 16.8663 19.5958 16.3399 19.9664C15.0218 20.8953 13.3723 21.5 11.4926 21.5C6.27016 21.5 2 17.3486 2 12.0005C2 10.8528 2.19515 9.76028 2.55371 8.75467C2.71373 8.30374 2.90644 7.86683 3.12986 7.45328C3.85726 6.09673 4.90467 4.95187 6.16967 4.10373C6.53362 3.86029 6.91609 3.64111 7.3132 3.44905C8.57575 2.83925 9.99493 2.5 11.4926 2.5C13.3723 2.5 15.0213 3.10468 16.3394 4.03411C16.8658 4.40513 17.6118 4.1285 17.7147 3.51027ZM16.5752 11.2105C16.7955 10.8581 16.959 10.4979 16.9522 10.1413C16.9528 9.4101 16.6048 8.80736 16.015 8.46209C15.6792 8.26557 15.3429 8.06974 15.0066 7.87392C14.5201 7.59059 14.0336 7.30727 13.5484 7.02186C13.4336 6.95376 13.3664 6.95316 13.2923 7.07681C13.1755 7.27148 13.0551 7.46424 12.9347 7.65704C12.8027 7.86833 12.6707 8.07968 12.5433 8.29363C12.4964 8.37308 12.4773 8.4812 12.4835 8.5738C12.4906 8.68703 12.5129 8.79965 12.5352 8.9121C12.544 8.95625 12.5528 9.00038 12.5606 9.04451C12.5963 9.24372 12.6322 9.44283 12.6681 9.64192C12.7267 9.96643 12.7852 10.2909 12.8426 10.6156C12.9285 11.1013 13.0133 11.5878 13.0982 12.0741C13.1279 12.2444 13.1577 12.4148 13.1874 12.5851C13.2106 12.7173 13.2344 12.8495 13.2582 12.9817C13.3241 13.3486 13.3901 13.7156 13.4441 14.0844C13.462 14.2039 13.4404 14.3526 13.3787 14.4554C13.1321 14.8692 12.8766 15.2778 12.6211 15.6864C12.5096 15.8647 12.398 16.043 12.2873 16.2218C12.2281 16.318 12.1398 16.3777 12.0331 16.3478C11.9486 16.3245 11.8517 16.269 11.8073 16.1997C11.4414 15.6298 11.0799 15.0569 10.7344 14.4751C10.6677 14.364 10.6387 14.2057 10.6579 14.0779C10.7304 13.5874 10.8161 13.0987 10.9018 12.6102C10.9261 12.4716 10.9504 12.333 10.9744 12.1944C11.02 11.9298 11.0665 11.6651 11.1129 11.4005C11.1593 11.1359 11.2057 10.8712 11.2514 10.6066C11.2721 10.4864 11.2929 10.3662 11.3137 10.246C11.41 9.68992 11.5063 9.13366 11.595 8.57618C11.6105 8.4812 11.5975 8.36293 11.5494 8.28169C11.4194 8.06138 11.2835 7.84425 11.1477 7.62712C11.0334 7.4445 10.9192 7.26189 10.8084 7.07741C10.7344 6.95435 10.6677 6.95376 10.5524 7.02186C10.1193 7.2766 9.68499 7.52951 9.25068 7.78244C8.8621 8.00874 8.4735 8.23505 8.08573 8.46269C7.27195 8.93878 6.91966 9.91188 7.28984 10.7601C7.4107 11.0369 7.57709 11.2958 7.7431 11.554C7.79742 11.6385 7.85171 11.7229 7.90434 11.8079C8.99267 13.5641 10.0822 15.3192 11.1749 17.073C11.5901 17.7385 12.5112 17.7385 12.9258 17.073C13.4222 16.2769 13.9172 15.4801 14.4123 14.6833C15.1319 13.525 15.8515 12.3667 16.5752 11.2105Z" fill="#050505"/>
</svg>
