<svg width="24" height="24" viewBox="0 0 24 24" fill="none" xmlns="http://www.w3.org/2000/svg">
    <path d="M17.829 3.47537C17.8971 3.04949 18.2654 2.73494 18.6968 2.73444H21.3212C21.8064 2.73444 22.2 3.12702 22.2 3.61205V21.3927C22.2 21.8772 21.8069 22.2703 21.3212 22.2703H18.6968C18.2649 22.2703 17.8971 21.9567 17.829 21.5308C17.724 20.8739 16.9636 20.5807 16.4267 20.9747C15.0822 21.9627 13.3998 22.6057 11.4825 22.6057C6.15555 22.6057 1.79999 18.1909 1.79999 12.5033C1.79999 11.2828 1.99904 10.121 2.36477 9.05158C2.52799 8.57203 2.72455 8.1074 2.95244 7.6676C3.69439 6.22497 4.76275 5.00746 6.05305 4.1055C6.42428 3.84661 6.81439 3.61352 7.21945 3.40927C8.50726 2.76077 9.95482 2.39999 11.4825 2.39999C13.3998 2.39999 15.0817 3.04304 16.4262 4.03145C16.9631 4.42602 17.724 4.13284 17.829 3.47537ZM17.5371 11.3424C17.5371 9.41266 16.1737 8.03428 14.4917 8.03428C13.4618 8.03428 12.5537 8.58563 12 9.13698C11.4463 8.58563 10.5382 8.03428 9.50828 8.03428C7.84713 8.03428 6.46284 9.41266 6.46284 11.3424C6.46284 14.9818 10.1556 17.1504 11.7375 18.0793C11.8331 18.1355 11.9211 18.1871 12 18.2343C12.0789 18.1871 12.1669 18.1355 12.2625 18.0793C13.8443 17.1504 17.5371 14.9818 17.5371 11.3424Z" fill="#D9D9D9" />
</svg>