<svg width="24" height="24" viewBox="0 0 24 24" fill="none" xmlns="http://www.w3.org/2000/svg">
<path d="M20.049 10.433L19.961 9.75H21C21.414 9.75 21.75 9.414 21.75 9C21.75 8.586 21.414 8.25 21 8.25H19.77L19.659 7.38699C19.415 5.91599 19.139 4.25 15.958 4.25H8.041C4.86 4.25 4.584 5.91701 4.336 7.41501L4.229 8.25H3C2.586 8.25 2.25 8.586 2.25 9C2.25 9.414 2.586 9.75 3 9.75H4.03799L3.951 10.433C3.459 10.605 3.10601 10.868 2.88901 11.114C2.38701 11.683 2.17 12.474 2.278 13.341L2.668 16.465C2.849 17.914 3.60201 18.94 4.75101 19.427V21C4.75101 21.414 5.08701 21.75 5.50101 21.75C5.91501 21.75 6.25101 21.414 6.25101 21V19.74C6.29801 19.741 6.34 19.75 6.388 19.75H17.614C17.66 19.75 17.701 19.741 17.746 19.74V21C17.746 21.414 18.082 21.75 18.496 21.75C18.91 21.75 19.246 21.414 19.246 21V19.429C20.398 18.943 21.152 17.916 21.333 16.465L21.723 13.341C21.831 12.474 21.615 11.683 21.112 11.113C20.895 10.868 20.542 10.605 20.049 10.433ZM8.04201 5.75H15.959C17.868 5.75 17.947 6.22401 18.176 7.60501L18.525 10.337C17.697 10.516 15.158 11 12 11C8.842 11 6.30201 10.516 5.47501 10.338L5.82001 7.633C6.05401 6.224 6.13201 5.75 8.04201 5.75ZM19.844 16.279C19.68 17.587 18.93 18.25 17.613 18.25H6.38699C5.06999 18.25 4.31901 17.587 4.15601 16.279L3.76601 13.155C3.71201 12.721 3.799 12.349 4.013 12.107C4.209 11.885 4.514 11.766 4.922 11.752C5.486 11.884 8.312 12.501 12 12.501C15.688 12.501 18.514 11.885 19.078 11.752C19.486 11.766 19.791 11.885 19.987 12.107C20.201 12.349 20.288 12.721 20.234 13.156L19.844 16.279ZM9.75 3C9.75 2.586 10.086 2.25 10.5 2.25H13.5C13.914 2.25 14.25 2.586 14.25 3C14.25 3.414 13.914 3.75 13.5 3.75H10.5C10.086 3.75 9.75 3.414 9.75 3ZM17.5 15C17.5 15.414 17.164 15.75 16.75 15.75H15.25C14.836 15.75 14.5 15.414 14.5 15C14.5 14.586 14.836 14.25 15.25 14.25H16.75C17.164 14.25 17.5 14.586 17.5 15ZM9.5 15C9.5 15.414 9.164 15.75 8.75 15.75H7.25C6.836 15.75 6.5 15.414 6.5 15C6.5 14.586 6.836 14.25 7.25 14.25H8.75C9.164 14.25 9.5 14.586 9.5 15Z" fill="#25314C"/>
</svg>
