<svg width="24" height="24" viewBox="0 0 24 24" fill="none" xmlns="http://www.w3.org/2000/svg">
<path d="M2 12C2 17.5228 6.47715 22 12 22C17.5228 22 22 17.5228 22 12C22 6.47715 17.5228 2 12 2C6.47715 2 2 6.47715 2 12ZM20 12C20 16.4183 16.4183 20 12 20C7.58172 20 4 16.4183 4 12C4 7.58172 7.58172 4 12 4C16.4183 4 20 7.58172 20 12Z" fill="#050505"/>
<path d="M7.0001 12.2295C7.03418 14.8647 9.26405 17 11.9993 17C14.7581 17 17 14.8313 17 12.1683C17 11.3889 16.209 10.7861 15.3581 11.0726C14.8656 11.2386 14.5949 11.7311 14.581 12.2346C14.5311 14.0723 12.4126 15.4225 10.3987 14.1863C9.70705 13.7616 9.39892 12.9868 9.41764 12.1952C9.4354 11.4264 8.68379 10.8199 7.85298 11.049C7.32839 11.1937 6.99338 11.7028 7.0001 12.2295Z" fill="#050505"/>
</svg>
