<svg width="24" height="24" viewBox="0 0 24 24" fill="none" xmlns="http://www.w3.org/2000/svg">
<path d="M21 17.5H20.5V10C20.5 7.71 19.29 6.5 17 6.5H16.5V4C16.5 3.724 16.276 3.5 16 3.5C15.724 3.5 15.5 3.724 15.5 4V6.5H12.5V4C12.5 3.724 12.276 3.5 12 3.5C11.724 3.5 11.5 3.724 11.5 4V6.5H8.5V4C8.5 3.724 8.276 3.5 8 3.5C7.724 3.5 7.5 3.724 7.5 4V6.5H7C4.71 6.5 3.5 7.71 3.5 10V17.5H3C2.724 17.5 2.5 17.724 2.5 18V19C2.5 20.378 3.622 21.5 5 21.5H19C20.378 21.5 21.5 20.378 21.5 19V18C21.5 17.724 21.276 17.5 21 17.5ZM7 7.5H17C18.729 7.5 19.5 8.271 19.5 10V11.338C18.632 11.61 17.867 12.513 17.393 13.204C16.917 12.371 16.023 11.25 14.664 11.25C13.359 11.25 12.487 12.283 12.001 13.102C11.515 12.282 10.643 11.25 9.33701 11.25C7.97801 11.25 7.084 12.372 6.608 13.204C6.134 12.512 5.36901 11.61 4.50101 11.338V10C4.50001 8.271 5.271 7.5 7 7.5ZM4.5 12.428C5.178 12.84 5.91098 13.904 6.22198 14.485C6.31498 14.659 6.50201 14.763 6.70001 14.748C6.89701 14.734 7.06801 14.604 7.13501 14.418C7.14201 14.397 7.92701 12.25 9.33701 12.25C10.746 12.25 11.521 14.395 11.529 14.416C11.6 14.616 11.789 14.749 12.001 14.749C12.213 14.749 12.402 14.615 12.472 14.415C12.48 14.394 13.27 12.25 14.663 12.25C16.073 12.25 16.857 14.396 16.865 14.418C16.932 14.604 17.102 14.734 17.3 14.748C17.497 14.763 17.684 14.66 17.778 14.485C18.089 13.904 18.822 12.84 19.501 12.428V17.5H4.50101V12.428H4.5ZM20.5 19C20.5 19.827 19.827 20.5 19 20.5H5C4.173 20.5 3.5 19.827 3.5 19V18.5H20.5V19Z" fill="#25314C"/>
</svg>
