<svg width="24" height="24" viewBox="0 0 24 24" fill="none" xmlns="http://www.w3.org/2000/svg">
<path d="M12.0009 2.5C6.76392 2.5 2.50287 6.76102 2.50287 11.999C2.50287 13.363 2.80605 14.736 3.38105 15.974C3.52505 16.274 3.53589 16.648 3.41889 17.019L2.57782 19.52C2.39682 20.062 2.53803 20.651 2.94403 21.057C3.23203 21.346 3.61383 21.5 4.00483 21.5C4.16383 21.5 4.32388 21.474 4.48188 21.422L6.97504 20.585C7.35204 20.464 7.72693 20.477 8.03193 20.622C9.26493 21.195 10.6379 21.498 12.0019 21.498C17.2389 21.498 21.5009 17.237 21.5009 11.999C21.5009 6.76102 17.2379 2.5 12.0009 2.5ZM12.0009 20.498C10.7819 20.498 9.55595 20.227 8.45795 19.717C7.92695 19.463 7.29203 19.433 6.66303 19.634L4.16401 20.473C3.98001 20.534 3.78982 20.487 3.65082 20.349C3.51182 20.211 3.46482 20.018 3.52582 19.837L4.36884 17.33C4.56584 16.708 4.53585 16.074 4.28485 15.548C3.77285 14.445 3.50287 13.218 3.50287 11.999C3.50287 7.31302 7.31492 3.5 12.0009 3.5C16.6879 3.5 20.4999 7.31202 20.4999 11.999C20.4999 16.686 16.6879 20.498 12.0009 20.498ZM16.3539 10.046C16.5489 10.241 16.5489 10.558 16.3539 10.753L14.1188 12.988C13.6118 13.496 12.7889 13.494 12.2819 12.989L11.0109 11.72C10.8949 11.602 10.7029 11.604 10.5869 11.72L8.35492 13.952C8.25692 14.05 8.12892 14.098 8.00092 14.098C7.87292 14.098 7.74492 14.049 7.64692 13.952C7.45192 13.757 7.45192 13.44 7.64692 13.245L9.87885 11.013C10.3858 10.507 11.208 10.506 11.717 11.012L12.988 12.281C13.102 12.397 13.2928 12.398 13.4108 12.281L15.6459 10.046C15.8419 9.85102 16.1579 9.85102 16.3539 10.046Z" fill="#25314C"/>
</svg>
