<svg width="20" height="20" viewBox="0 0 20 20" fill="none" xmlns="http://www.w3.org/2000/svg">
<path d="M11.6217 1.74468C10.6873 0.948384 9.31292 0.948392 8.37858 1.74468L7.25522 2.70198C7.12174 2.81572 6.95579 2.88445 6.78098 2.8984L5.30975 3.01581C4.08598 3.11347 3.1142 4.08524 3.01654 5.30901L2.89914 6.78024C2.8852 6.95504 2.81644 7.12103 2.7027 7.2545L1.7454 8.37784C0.949117 9.31226 0.949126 10.6865 1.74542 11.6208L2.70272 12.7443C2.81644 12.8778 2.88518 13.0437 2.89913 13.2185L3.01656 14.6897C3.11422 15.9134 4.086 16.8852 5.30978 16.9828L6.78099 17.1003C6.95579 17.1143 7.12171 17.183 7.25518 17.2968L8.3785 18.254C9.31292 19.0503 10.6873 19.0503 11.6217 18.254L12.745 17.2968C12.8784 17.183 13.0443 17.1143 13.2192 17.1003L14.6904 16.9828C15.9142 16.8853 16.8859 15.9135 16.9837 14.6897L17.101 13.2185C17.1149 13.0437 17.1838 12.8777 17.2974 12.7442L18.2548 11.6209C19.0511 10.6865 19.0511 9.31217 18.2548 8.37784L17.2974 7.25447C17.1837 7.12099 17.115 6.95504 17.1011 6.78025L16.9837 5.30902C16.886 4.08526 15.9142 3.11345 14.6904 3.0158L13.2192 2.89839C13.0443 2.88444 12.8784 2.81572 12.745 2.70198L11.6217 1.74468ZM12.3569 6.46391L13.5354 7.64243L7.64284 13.535L6.46433 12.3564L12.3569 6.46391ZM8.52675 8.52626C8.03857 9.01443 7.24712 9.01443 6.75896 8.52626C6.2708 8.03818 6.2708 7.24669 6.75896 6.75853C7.24712 6.27038 8.03857 6.27038 8.52675 6.75853C9.01492 7.24669 9.01492 8.03818 8.52675 8.52626ZM11.473 13.2403C10.9848 12.7522 10.9848 11.9608 11.473 11.4726C11.9612 10.9844 12.7526 10.9844 13.2408 11.4726C13.7289 11.9608 13.7289 12.7522 13.2408 13.2403C12.7526 13.7285 11.9612 13.7285 11.473 13.2403Z" fill="#9DA4AE"/>
</svg>
