<svg width="24" height="24" viewBox="0 0 24 24" fill="none" xmlns="http://www.w3.org/2000/svg">
<path d="M21 16.5H20.351C20.439 16 20.5 15.498 20.5 15C20.5 10.868 17.536 7.41997 13.623 6.65997C13.858 6.33197 14 5.933 14 5.5C14 4.397 13.103 3.5 12 3.5C10.897 3.5 10 4.397 10 5.5C10 5.933 10.142 6.33197 10.377 6.65997C6.464 7.41997 3.5 10.869 3.5 15C3.5 15.498 3.561 16 3.649 16.5H3C2.724 16.5 2.5 16.724 2.5 17V18C2.5 19.378 3.622 20.5 5 20.5H19C20.378 20.5 21.5 19.378 21.5 18V17C21.5 16.724 21.276 16.5 21 16.5ZM11 5.5C11 4.948 11.449 4.5 12 4.5C12.551 4.5 13 4.948 13 5.5C13 6.052 12.551 6.5 12 6.5C11.449 6.5 11 6.052 11 5.5ZM4.5 15C4.5 10.865 7.864 7.5 12 7.5C16.136 7.5 19.5 10.865 19.5 15C19.5 15.498 19.436 16 19.336 16.5H4.664C4.564 16 4.5 15.498 4.5 15ZM20.5 18C20.5 18.827 19.827 19.5 19 19.5H5C4.173 19.5 3.5 18.827 3.5 18V17.5H20.5V18ZM16.495 11.736C16.641 11.971 16.569 12.279 16.334 12.424C16.252 12.475 16.161 12.499 16.071 12.499C15.904 12.499 15.74 12.415 15.646 12.263C15.091 11.37 14.044 10.691 12.914 10.492C12.642 10.444 12.46 10.185 12.509 9.91302C12.556 9.64103 12.818 9.46102 13.088 9.50702C14.51 9.75902 15.784 10.592 16.495 11.736Z" fill="#25314C"/>
</svg>
