<svg width="24" height="24" viewBox="0 0 24 24" fill="none" xmlns="http://www.w3.org/2000/svg">
<path d="M16.5 9.49999H4.5C3.949 9.49999 3.5 9.94799 3.5 10.5V18C3.5 20.29 4.71 21.5 7 21.5H13C15.29 21.5 16.5 20.29 16.5 18V17.5C18.706 17.5 20.5 15.706 20.5 13.5C20.5 11.294 18.706 9.49999 16.5 9.49999ZM15.5 18C15.5 19.729 14.729 20.5 13 20.5H7C5.271 20.5 4.5 19.729 4.5 18V10.5H15.5V18ZM16.5 16.5V10.5C18.154 10.5 19.5 11.846 19.5 13.5C19.5 15.154 18.154 16.5 16.5 16.5ZM11.995 5.20098C11.336 4.53898 11.336 3.461 11.995 2.799L12.145 2.648C12.34 2.452 12.656 2.45099 12.852 2.64599C13.048 2.84099 13.049 3.15702 12.854 3.35302L12.704 3.50402C12.432 3.77802 12.432 4.22296 12.704 4.49596L13.005 4.799C13.664 5.461 13.664 6.53898 13.005 7.20098L12.855 7.35198C12.757 7.44998 12.629 7.49999 12.501 7.49999C12.374 7.49999 12.246 7.45197 12.148 7.35497C11.952 7.15997 11.951 6.844 12.146 6.648L12.296 6.497C12.568 6.223 12.568 5.778 12.296 5.505L11.995 5.20098ZM6.995 5.20098C6.336 4.53898 6.336 3.461 6.995 2.799L7.145 2.648C7.34 2.452 7.656 2.45099 7.85201 2.64599C8.04801 2.84099 8.049 3.15702 7.854 3.35302L7.70399 3.50402C7.43199 3.77802 7.43199 4.22296 7.70399 4.49596L8.005 4.799C8.664 5.461 8.664 6.53898 8.005 7.20098L7.855 7.35198C7.757 7.44998 7.62901 7.49999 7.50101 7.49999C7.37401 7.49999 7.246 7.45197 7.14799 7.35497C6.95199 7.15997 6.951 6.844 7.146 6.648L7.29601 6.497C7.56801 6.223 7.56801 5.778 7.29601 5.505L6.995 5.20098Z" fill="#25314C"/>
</svg>
