<svg width="24" height="24" viewBox="0 0 24 24" fill="none" xmlns="http://www.w3.org/2000/svg">
<path d="M8 16.5H14C16.29 16.5 17.5 15.29 17.5 13V12.5C19.706 12.5 21.5 10.706 21.5 8.5C21.5 6.294 19.706 4.5 17.5 4.5H5.5C4.949 4.5 4.5 4.948 4.5 5.5V13C4.5 15.29 5.71 16.5 8 16.5ZM20.5 8.5C20.5 10.154 19.154 11.5 17.5 11.5V5.5C19.154 5.5 20.5 6.846 20.5 8.5ZM5.5 5.5H16.5V13C16.5 14.729 15.729 15.5 14 15.5H8C6.271 15.5 5.5 14.729 5.5 13V5.5ZM21.5 19C21.5 19.276 21.276 19.5 21 19.5H3C2.724 19.5 2.5 19.276 2.5 19C2.5 18.724 2.724 18.5 3 18.5H21C21.276 18.5 21.5 18.724 21.5 19Z" fill="#25314C"/>
</svg>
