<svg width="24" height="24" viewBox="0 0 24 24" fill="none" xmlns="http://www.w3.org/2000/svg">
<path d="M21.354 20.646C21.549 20.841 21.549 21.158 21.354 21.353C21.256 21.451 21.128 21.499 21 21.499C20.872 21.499 20.744 21.45 20.646 21.353L15 15.707L12.704 18.003C12.518 18.189 12.268 18.292 12 18.292C11.732 18.292 11.482 18.189 11.296 18.003L10.147 16.853C9.95201 16.658 9.95201 16.341 10.147 16.146C10.342 15.951 10.659 15.951 10.854 16.146L12.004 17.296L14.647 14.646C14.84 14.453 15.152 14.452 15.347 14.642L15.348 14.641L15.358 14.651L21.354 20.646ZM7.14601 13.854C7.24401 13.952 7.37201 14 7.50001 14C7.62801 14 7.75601 13.951 7.85401 13.854C8.04901 13.659 8.04901 13.342 7.85401 13.147L7.184 12.477C5.729 11.022 4.50001 8.05601 4.50001 6.00001V5.20698L8.65602 9.36299C8.75402 9.46099 8.88202 9.50898 9.01002 9.50898C9.13802 9.50898 9.26602 9.45999 9.36402 9.36299C9.55902 9.16799 9.55902 8.85102 9.36402 8.65602L4.35502 3.64601C4.30902 3.60001 4.253 3.56303 4.192 3.53803C4.07 3.48703 3.93201 3.48703 3.81001 3.53803C3.68801 3.58903 3.59002 3.68603 3.54002 3.80903C3.51502 3.87003 3.50102 3.93501 3.50102 4.00001V6.00001C3.50102 8.32001 4.83601 11.542 6.47801 13.184L7.14601 13.854ZM15.5 12.533C16.533 12.533 17.567 12.14 18.354 11.353L21.354 8.35304C21.549 8.15804 21.549 7.84101 21.354 7.64601C21.159 7.45101 20.842 7.45101 20.647 7.64601L17.647 10.646C16.463 11.829 14.538 11.829 13.354 10.646C12.781 10.073 12.465 9.31001 12.465 8.50001C12.465 7.69001 12.781 6.92701 13.354 6.35401L16.354 3.35401C16.549 3.15901 16.549 2.84198 16.354 2.64698C16.159 2.45198 15.842 2.45198 15.647 2.64698L12.647 5.64698C11.885 6.40898 11.465 7.42299 11.465 8.50099C11.465 9.40899 11.778 10.261 12.328 10.967L2.64701 20.648C2.45201 20.843 2.45201 21.16 2.64701 21.355C2.74501 21.453 2.87302 21.501 3.00102 21.501C3.12902 21.501 3.25702 21.452 3.35502 21.355L13.037 11.673C13.761 12.234 14.626 12.533 15.5 12.533ZM14.527 7.98402C14.625 8.08102 14.753 8.13001 14.88 8.13001C15.008 8.13001 15.136 8.08098 15.234 7.98298L18.104 5.10304C18.299 4.90704 18.298 4.59101 18.103 4.39601C17.908 4.20101 17.591 4.20198 17.396 4.39698L14.526 7.27699C14.331 7.47199 14.332 7.78902 14.527 7.98402ZM16.027 9.48402C16.125 9.58102 16.253 9.63001 16.38 9.63001C16.508 9.63001 16.636 9.58098 16.734 9.48298L19.604 6.60304C19.799 6.40704 19.798 6.09101 19.603 5.89601C19.408 5.70101 19.091 5.70198 18.896 5.89698L16.026 8.77699C15.831 8.97199 15.832 9.28902 16.027 9.48402Z" fill="#25314C"/>
</svg>
