<svg width="24" height="24" viewBox="0 0 24 24" fill="none" xmlns="http://www.w3.org/2000/svg">
<path d="M13.5 7.75C11.983 7.75 10.75 8.984 10.75 10.5C10.75 12.016 11.983 13.25 13.5 13.25C15.017 13.25 16.25 12.016 16.25 10.5C16.25 8.984 15.017 7.75 13.5 7.75ZM13.5 12.25C12.535 12.25 11.75 11.465 11.75 10.5C11.75 9.535 12.535 8.75 13.5 8.75C14.465 8.75 15.25 9.535 15.25 10.5C15.25 11.465 14.465 12.25 13.5 12.25ZM21.5 3C21.5 2.724 21.276 2.5 21 2.5C16.081 2.5 12.205 3.986 9.67999 6.715L7.69901 7.047C5.80801 7.353 4.197 8.64801 3.495 10.424L2.535 12.814C2.467 12.984 2.49701 13.179 2.61401 13.32C2.71001 13.436 2.85199 13.501 2.99899 13.501C3.03199 13.501 3.06398 13.498 3.09698 13.491L6.703 12.771C6.677 12.901 6.64199 13.025 6.61899 13.157C6.51099 13.782 6.72199 14.43 7.18399 14.892L9.10599 16.815C9.48899 17.197 9.999 17.408 10.517 17.408C10.625 17.408 10.733 17.399 10.841 17.38C10.973 17.357 11.097 17.322 11.228 17.296L10.508 20.902C10.472 21.082 10.538 21.267 10.679 21.385C10.77 21.461 10.884 21.5 10.998 21.5C11.061 21.5 11.124 21.488 11.185 21.464L13.572 20.505C15.351 19.802 16.646 18.191 16.951 16.302L17.283 14.32C20.014 11.795 21.5 7.919 21.5 3ZM19.748 8.28699C19.171 6.35399 17.646 4.82901 15.713 4.25201C17.494 3.71501 19.22 3.53901 20.494 3.50601C20.461 4.78001 20.285 6.50699 19.748 8.28699ZM3.80899 12.329L4.42499 10.794C4.99899 9.34101 6.31501 8.28399 7.86301 8.03299L8.73901 7.88699C7.95501 9.00099 7.355 10.276 6.957 11.701L3.80899 12.329ZM10.672 16.395C10.371 16.447 10.044 16.337 9.815 16.108L7.89301 14.185C7.66001 13.953 7.55299 13.632 7.60599 13.328C8.39199 8.794 10.958 6.33899 13.746 5.01099C13.83 5.00599 13.913 5 14 5C16.757 5 19 7.243 19 10C19 10.08 18.993 10.17 18.989 10.255C17.661 13.042 15.206 15.608 10.672 16.395ZM15.966 16.14C15.716 17.685 14.659 19.001 13.203 19.576L11.671 20.191L12.299 17.043C13.724 16.645 14.999 16.046 16.113 15.261L15.966 16.14Z" fill="#25314C"/>
</svg>
