<svg width="24" height="24" viewBox="0 0 24 24" fill="none" xmlns="http://www.w3.org/2000/svg">
<path d="M19.821 10.618L19.678 9.5H21C21.276 9.5 21.5 9.276 21.5 9C21.5 8.724 21.276 8.5 21 8.5H19.55L19.413 7.42801C19.175 5.98801 18.928 4.5 15.959 4.5H8.04201C5.07301 4.5 4.82601 5.98899 4.58501 7.44699L4.45 8.5H3C2.724 8.5 2.5 8.724 2.5 9C2.5 9.276 2.724 9.5 3 9.5H4.32201L4.179 10.618C3.65 10.767 3.291 11.035 3.076 11.279C2.621 11.794 2.426 12.515 2.526 13.31L2.916 16.434C3.096 17.873 3.836 18.855 5 19.272V21C5 21.276 5.224 21.5 5.5 21.5C5.776 21.5 6 21.276 6 21V19.471C6.128 19.481 6.25199 19.5 6.38699 19.5H17.613C17.746 19.5 17.868 19.482 17.995 19.472V21C17.995 21.276 18.219 21.5 18.495 21.5C18.771 21.5 18.995 21.276 18.995 21V19.274C20.162 18.858 20.904 17.875 21.084 16.434L21.474 13.31C21.574 12.515 21.378 11.794 20.924 11.279C20.709 11.035 20.35 10.767 19.821 10.618ZM5.57401 7.59201C5.81201 6.15601 5.92101 5.5 8.04201 5.5H15.959C18.08 5.5 18.188 6.156 18.424 7.573L18.802 10.531C18.346 10.637 15.565 11.249 12 11.249C8.435 11.249 5.654 10.637 5.198 10.531L5.57401 7.59201ZM20.482 13.186L20.092 16.31C19.967 17.309 19.436 18.5 17.613 18.5H6.38699C4.56399 18.5 4.033 17.309 3.908 16.31L3.51801 13.186C3.45501 12.68 3.564 12.238 3.826 11.941C4.075 11.659 4.45201 11.511 4.94901 11.501C5.41701 11.613 8.25901 12.251 12.001 12.251C15.743 12.251 18.585 11.613 19.053 11.501C19.55 11.512 19.927 11.66 20.176 11.941C20.437 12.238 20.546 12.68 20.482 13.186ZM10 3C10 2.724 10.224 2.5 10.5 2.5H13.5C13.776 2.5 14 2.724 14 3C14 3.276 13.776 3.5 13.5 3.5H10.5C10.224 3.5 10 3.276 10 3ZM17.25 15C17.25 15.276 17.026 15.5 16.75 15.5H15.25C14.974 15.5 14.75 15.276 14.75 15C14.75 14.724 14.974 14.5 15.25 14.5H16.75C17.026 14.5 17.25 14.724 17.25 15ZM9.25 15C9.25 15.276 9.026 15.5 8.75 15.5H7.25C6.974 15.5 6.75 15.276 6.75 15C6.75 14.724 6.974 14.5 7.25 14.5H8.75C9.026 14.5 9.25 14.724 9.25 15Z" fill="#25314C"/>
</svg>
